<?xml version="1.0" encoding="utf-8"?>
<!-- Generator: Adobe Illustrator 16.0.4, SVG Export Plug-In . SVG Version: 6.00 Build 0)  -->
<!DOCTYPE svg PUBLIC "-//W3C//DTD SVG 1.1//EN" "http://www.w3.org/Graphics/SVG/1.1/DTD/svg11.dtd">
<svg version="1.1" id="Layer_1" xmlns="http://www.w3.org/2000/svg" xmlns:xlink="http://www.w3.org/1999/xlink" x="0px" y="0px"
	 width="340px" height="170px" viewBox="0 0 340 170" enable-background="new 0 0 340 170" xml:space="preserve">
<g>
	<path fill="#353535" d="M71.13,46.092l-0.426,3.885c-0.076,0.697-0.114,1.213-0.114,1.547c0,0.662,0.225,0.993,0.675,0.993
		c0.484,0,0.987-0.398,1.506-1.195c0.087,0.111,0.131,0.211,0.131,0.299c0,0.328-0.289,0.721-0.866,1.178s-1.074,0.686-1.49,0.686
		c-0.832,0-1.248-0.533-1.248-1.6c0-0.393,0.05-1.028,0.149-1.907l0.421-3.885h-1.845l1.023-1.02h0.936l0.186-1.6l1.294-0.431
		l-0.213,2.03h3.727l-1.03,1.02H71.13z"/>
	<path fill="#353535" d="M77.043,48.404c0.686-1.031,1.44-1.882,2.263-2.553s1.528-1.006,2.114-1.006
		c0.568,0,0.853,0.395,0.853,1.185c0,0.234-0.034,0.594-0.102,1.08l-0.469,3.274c-0.097,0.655-0.146,1.173-0.146,1.554
		c0,0.304,0.082,0.457,0.247,0.457c0.405,0,0.901-0.536,1.489-1.608c0.147,0.088,0.22,0.179,0.22,0.272
		c0,0.381-0.327,0.88-0.981,1.499s-1.186,0.927-1.597,0.927c-0.458,0-0.686-0.328-0.686-0.984c0-0.48,0.062-1.146,0.185-1.995
		l0.304-2.127c0.1-0.697,0.149-1.251,0.149-1.661c0-0.451-0.161-0.677-0.482-0.677c-0.749,0-1.505,0.508-2.271,1.525
		c-0.766,1.017-1.216,2.108-1.351,3.274l-0.233,2.109l-1.315,0.536l0.026-0.246l0.07-0.651l0.07-0.615l0.854-7.704
		c0.205-1.817,0.878-3.37,2.021-4.657c1.143-1.287,2.419-1.93,3.831-1.93c0.292,0,0.577,0.032,0.852,0.097l-1.291,1.266
		c-0.334-0.1-0.65-0.149-0.949-0.149c-1.739,0-2.761,1.361-3.065,4.082L77.043,48.404z"/>
	<path fill="#353535" d="M89.673,50.46c0.146,0.1,0.22,0.217,0.22,0.352c0,0.182-0.188,0.492-0.562,0.932
		c-1.002,1.16-1.992,1.74-2.971,1.74c-0.598,0-1.09-0.237-1.477-0.712s-0.58-1.081-0.58-1.819c0-1.336,0.505-2.688,1.516-4.056
		s2.011-2.052,3.001-2.052c0.715,0,1.072,0.384,1.072,1.151c0,0.861-0.417,1.702-1.252,2.522s-1.853,1.392-3.054,1.714
		c0.117,1.406,0.674,2.109,1.67,2.109C88.24,52.341,89.046,51.714,89.673,50.46z M85.621,49.16c0.17,0.059,0.325,0.088,0.466,0.088
		c0.727,0,1.362-0.223,1.907-0.668s0.817-0.967,0.817-1.564c0-0.686-0.349-1.028-1.046-1.028c-0.504,0-0.959,0.3-1.367,0.901
		S85.732,48.246,85.621,49.16z"/>
</g>
<g>
	<path fill="#353535" d="M99.507,31.605c1.805-3.375,3.422-6.457,4.852-9.246c1.429-2.789,3.059-5.883,4.887-9.281
		c9.726,2.742,19.23,3.059,28.512,0.949c-1.946,3.938-2.766,7.371-2.461,10.301c1.336,13.641-0.674,25.125-6.029,34.453
		c-5.356,9.328-13.482,17.027-24.381,23.098c-0.914-0.703-1.852-1.401-2.812-2.092c-0.961-0.691-1.887-1.389-2.777-2.092
		c3-0.586,5.854-1.359,8.561-2.32c2.707-0.961,5.156-2.678,7.348-5.15c2.191-2.473,4.078-6.017,5.66-10.635
		c1.582-4.617,2.748-10.886,3.498-18.809c-3.282-0.164-6.258-0.07-8.93,0.281s-5.203,0.821-7.594,1.406
		c1.102-2.062,2.203-4.125,3.305-6.188c1.102-2.062,2.227-4.148,3.375-6.258c3.164,1.313,6.738,1.992,10.723,2.039
		c0.422-3.398,1.007-5.953,1.758-7.664c-5.555-0.258-10.512,0.111-14.871,1.107C107.769,26.502,103.562,28.535,99.507,31.605z"/>
	<path fill="#353535" d="M154.948,29.882c1.805,0.773,3.626,2.15,5.467,4.131c1.84,1.981,3.38,4.131,4.623,6.451
		c1.242,2.32,2.039,4.611,2.391,6.873c0.352,2.262-0.035,4.025-1.16,5.291L154.597,67.5l-15.047-7.418
		c0.585-1.218,1.13-2.531,1.635-3.938c0.504-1.406,0.756-2.953,0.756-4.641l-0.07-8.191c-0.07-1.688-0.246-2.848-0.527-3.48
		c2.273-1.523,4.576-3.123,6.908-4.799C150.583,33.357,152.815,31.64,154.948,29.882z M150.8,38.601l-0.105,14.941
		c0.211,1.148,1.102,2.08,2.672,2.795c1.57,0.715,2.73,0.979,3.48,0.791c2.554-0.585,3.527-2.438,2.918-5.555
		c-0.797-3.867-1.951-6.791-3.463-8.771C154.79,40.822,152.956,39.422,150.8,38.601z"/>
	<path fill="#353535" d="M171.964,20.32l11.602-6.293c-0.633,2.812-1.002,5.73-1.107,8.754s-0.158,6.094-0.158,9.211v3.27
		l6.855-5.238c6.938,6.586,10.201,14.115,9.791,22.588s-3.814,17.619-10.213,27.439l-5.238-1.652
		c5.391-5.906,8.027-12.686,7.91-20.338c-0.117-7.652-3.164-14.08-9.141-19.283l-0.105,13.852c0,1.758,0.164,2.754,0.492,2.988
		c0.328,0.234,2.039,1.324,5.133,3.27c-1.312,1.454-2.613,2.895-3.902,4.324c-1.289,1.43-2.59,2.848-3.902,4.254
		c-1.734-1.312-3.463-2.631-5.186-3.955c-1.723-1.324-3.44-2.642-5.15-3.955c1.594-1.383,2.637-2.66,3.129-3.832
		c0.492-1.172,0.75-2.285,0.773-3.34l0.176-21.27c0-1.523-0.065-3.34-0.193-5.449C173.399,23.554,172.878,21.773,171.964,20.32z"/>
	<path fill="#353535" d="M214.468,35.156l4.113-5.133l11.215,8.121l-1.055,4.148l-0.457,11.32c-0.047,1.243,0.293,2.245,1.02,3.006
		c0.727,0.762,1.535,1.331,2.426,1.705l-7.031,8.578c-1.734-1.359-3.082-2.584-4.043-3.674s-1.406-3.486-1.336-7.189l0.246-13.008
		c0-0.609-0.521-1.406-1.564-2.391s-2.021-1.828-2.936-2.531l-1.406,2.215l-0.668,13.289c-0.047,1.243,0.293,2.245,1.02,3.006
		c0.727,0.762,1.547,1.331,2.461,1.705l-7.031,8.578l-7.418-6.012c1.336-1.617,2.004-3.234,2.004-4.852l0.281-15.961
		c0-1.125-0.867-2.25-2.602-3.375l5.309-6.68L214.468,35.156z"/>
	<path fill="#353535" d="M19.28,111.327l0.211-17.262c0.047-2.859-1.102-5.261-3.445-7.207c3.633-2.109,7.271-4.241,10.916-6.398
		c3.644-2.156,7.307-4.301,10.986-6.434c3.398,1.289,6.516,2.777,9.352,4.465c2.835,1.688,5.555,3.469,8.156,5.344
		c-2.672,1.781-5.414,3.668-8.227,5.66c10.102,7.805,13.271,14.789,9.51,20.953c-3.762,6.165-11.502,11.871-23.221,17.121
		c-3.094-2.742-6.539-4.979-10.336-6.715c-3.797-1.734-8.074-2.742-12.832-3.023L19.28,111.327z M30.636,98.847l-0.07,9.422
		l-3.551,2.18c2.906,1.454,5.678,3.006,8.314,4.658s4.705,3.229,6.205,4.729c3.398-2.976,5.25-6.029,5.555-9.158
		c0.304-3.129-0.311-5.83-1.846-8.104c-1.535-2.272-3.68-3.844-6.434-4.711C36.055,96.996,33.331,97.323,30.636,98.847z
		 M41.604,88.019c-3.282-2.438-6.903-4.23-10.863-5.378l-0.07,12.796L41.604,88.019z"/>
	<path fill="#353535" d="M61.89,101.308l13.711-11.145L91.14,97.44c-1.828,1.595-2.754,3.388-2.777,5.379l-0.141,11.637
		c0,0.797,0.416,1.7,1.248,2.707c0.832,1.008,1.623,1.816,2.373,2.426l-7.102,7.312l-5.449-5.59c-1.313,1.055-2.637,2.021-3.973,2.9
		s-2.531,1.799-3.586,2.76c-3.516-1.312-6.797-3.34-9.844-6.082c0.867-1.102,1.371-2.707,1.512-4.816l-0.105-10.617
		C63.366,103.979,62.897,102.597,61.89,101.308z M73.948,98.601c-1.359,2.039-2.039,3.855-2.039,5.449v8.613
		c0,1.758,0.316,3.012,0.949,3.762c0.539,0.773,1.037,1.465,1.494,2.074c0.457,0.61,1.189,1.055,2.197,1.336l2.883-2.074v-16.172
		L73.948,98.601z"/>
	<path fill="#353535" d="M106.89,95.155l4.57-4.641c4.711,3.258,7.898,6.562,9.562,9.914l-5.625,7.523
		c-0.633-1.851-1.494-3.48-2.584-4.887s-2.9-2.848-5.432-4.324l-1.16,1.582l-0.668,11.988c-0.07,1.219,0.703,2.484,2.32,3.797
		c1.617,1.313,2.871,2.157,3.762,2.531l-5.836,8.262l-10.898-8.473c1.312-1.569,1.992-3.187,2.039-4.852l-0.07-13.5
		c-0.07-1.125-0.938-2.25-2.602-3.375l5.309-6.68L106.89,95.155z"/>
	<path fill="#353535" d="M124.573,80.32l11.602-6.293c-0.633,2.812-1.002,5.73-1.107,8.754c-0.105,3.023-0.158,6.094-0.158,9.21
		l-0.141,20.637c0,1.758,0.164,2.755,0.492,2.988c0.328,0.234,2.039,1.324,5.133,3.27c-1.313,1.454-2.614,2.896-3.902,4.324
		c-1.289,1.43-2.59,2.848-3.902,4.254c-1.735-1.312-3.463-2.631-5.186-3.955c-1.723-1.323-3.44-2.642-5.15-3.955
		c1.594-1.383,2.637-2.659,3.129-3.832c0.492-1.172,0.75-2.285,0.773-3.34l0.176-21.27c0-1.523-0.065-3.34-0.193-5.449
		C126.009,83.554,125.487,81.773,124.573,80.32z"/>
	<path fill="#353535" d="M154.491,90.022l0.07,0.035h0.035l13.676,9.809l-14.238,14.977c0.961,1.148,2.156,1.781,3.586,1.898
		c1.5,0.188,3.006,0.224,4.518,0.105c1.512-0.117,3.029-0.198,4.553-0.246c-1.243,1.735-2.473,3.458-3.691,5.168
		c-1.219,1.711-2.438,3.423-3.656,5.133c-2.812-1.125-5.62-2.244-8.42-3.357c-2.801-1.112-5.607-2.232-8.42-3.357
		c1.289-7.265,1.242-14.906-0.141-22.922l12.129-7.137V90.022z M152.628,111.925l5.66-5.977c0.703-0.773,0.773-1.611,0.211-2.514
		c-0.562-0.901-1.055-1.564-1.477-1.986c-3-2.624-4.746-2.578-5.238,0.141c-0.61,3.258-0.364,6.527,0.738,9.809
		c0,0.07,0.005,0.153,0.018,0.246C152.552,111.737,152.581,111.832,152.628,111.925z"/>
	<path fill="#353535" d="M185.288,126.796l-3.938-1.793l-8.473-2.602c1.406-1.758,2.109-3.879,2.109-6.363l0.281-15.961
		c0-1.172-0.867-2.297-2.602-3.375l5.309-6.68l8.438,5.59c-0.258,0.962-0.615,1.647-1.072,2.057
		c-0.457,0.41-0.732,1.096-0.826,2.057l-1.582,16.488c-0.07,0.727,0.404,1.852,1.424,3.375c1.02,1.524,2.303,2.32,3.85,2.391
		c2.438-5.602,3.727-12.902,3.867-21.902c0.047-1.102-0.797-2.227-2.531-3.375l5.309-6.68l7.945,5.59
		c-0.258,0.962-0.527,1.588-0.809,1.881c-0.281,0.294-0.504,0.909-0.668,1.846c-1.008,4.289-2.479,8.731-4.412,13.324
		c-1.934,4.594-4.055,8.89-6.363,12.885c-2.309,3.996-4.664,7.477-7.066,10.441s-4.553,4.939-6.451,5.924l-6.82-5.555
		C177.05,133.851,182.077,130.663,185.288,126.796z"/>
	<path fill="#353535" d="M223.327,103.382c-1.406-0.866-2.525-1.611-3.357-2.232c-0.832-0.62-2.01-1.283-3.533-1.986
		c-0.914-0.374-1.723-0.211-2.426,0.492c-2.016,2.039-2.637,4.436-1.863,7.189c0.773,2.755,2.566,5.502,5.379,8.244
		c1.312,1.243,2.584,1.63,3.814,1.16c1.23-0.469,2.314-1.488,3.252-3.059c0.492,0.352,0.99,0.698,1.494,1.037
		c0.504,0.34,1.014,0.686,1.529,1.037c-1.992,1.946-3.973,3.902-5.941,5.871s-3.949,3.915-5.941,5.836
		c-7.594-5.039-11.344-10.91-11.25-17.613c0.047-3.164,1.113-6.311,3.199-9.439s5.473-6.568,10.16-10.318
		c2.016,1.313,4.09,2.597,6.223,3.85c2.133,1.254,4.23,2.502,6.293,3.744L223.327,103.382z"/>
	<path fill="#353535" d="M247.304,89.882c1.805,0.773,3.627,2.15,5.467,4.131c1.84,1.981,3.381,4.131,4.623,6.451
		s2.039,4.611,2.391,6.873c0.352,2.263-0.035,4.025-1.16,5.291l-11.672,14.871l-15.047-7.418c0.586-1.218,1.131-2.531,1.635-3.938
		s0.756-2.953,0.756-4.641l-0.07-8.191c-0.07-1.688-0.246-2.848-0.527-3.48c2.273-1.523,4.576-3.123,6.908-4.799
		C242.938,93.357,245.171,91.64,247.304,89.882z M243.155,98.601l-0.105,14.941c0.211,1.148,1.102,2.08,2.672,2.795
		c1.57,0.716,2.73,0.979,3.48,0.791c2.555-0.585,3.527-2.438,2.918-5.555c-0.797-3.867-1.951-6.79-3.463-8.771
		C247.146,100.821,245.312,99.422,243.155,98.601z"/>
	<path fill="#353535" d="M275.147,95.155l4.57-4.641c4.711,3.258,7.898,6.562,9.562,9.914l-5.625,7.523
		c-0.633-1.851-1.494-3.48-2.584-4.887s-2.9-2.848-5.432-4.324l-1.16,1.582l-0.668,11.988c-0.07,1.219,0.703,2.484,2.32,3.797
		c1.617,1.313,2.871,2.157,3.762,2.531l-5.836,8.262l-10.898-8.473c1.312-1.569,1.992-3.187,2.039-4.852l-0.07-13.5
		c-0.07-1.125-0.938-2.25-2.602-3.375l5.309-6.68L275.147,95.155z"/>
	<path fill="#353535" d="M303.976,95.155l4.113-5.133l11.215,8.121l-1.055,4.148l-0.457,11.32c-0.047,1.243,0.293,2.245,1.02,3.006
		c0.727,0.762,1.535,1.331,2.426,1.705l-7.031,8.578c-1.734-1.358-3.082-2.584-4.043-3.674s-1.406-3.485-1.336-7.189l0.246-13.008
		c0-0.609-0.521-1.406-1.564-2.391s-2.021-1.828-2.936-2.531l-1.406,2.215l-0.668,13.289c-0.047,1.243,0.293,2.245,1.02,3.006
		c0.727,0.762,1.547,1.331,2.461,1.705l-7.031,8.578l-7.418-6.012c1.336-1.617,2.004-3.234,2.004-4.852l0.281-15.961
		c0-1.125-0.867-2.25-2.602-3.375l5.309-6.68L303.976,95.155z"/>
</g>
<g>
	<path fill="#353535" d="M209.691,143.704h-0.183c-0.137-0.773-0.5-1.429-1.091-1.966s-1.27-0.929-2.035-1.176
		c-0.767-0.247-1.482-0.371-2.148-0.371c-0.91,0-1.764,0.192-2.562,0.575s-1.487,0.924-2.067,1.622
		c-0.58,0.697-1.031,1.535-1.354,2.514c-0.322,0.977-0.483,2.039-0.483,3.185c0,1.11,0.155,2.14,0.467,3.089
		c0.312,0.948,0.767,1.771,1.364,2.471c0.598,0.697,1.291,1.226,2.079,1.584c0.787,0.358,1.661,0.537,2.621,0.537
		c0.802,0,1.683-0.163,2.643-0.488c0.959-0.326,1.826-0.869,2.6-1.628v0.612c-0.953,0.737-1.825,1.278-2.616,1.622
		s-1.777,0.516-2.959,0.516c-1.246,0-2.384-0.228-3.411-0.683c-1.027-0.454-1.896-1.068-2.604-1.842s-1.246-1.644-1.611-2.61
		s-0.548-1.962-0.548-2.986c0-1.54,0.379-2.97,1.139-4.292c0.759-1.321,1.786-2.366,3.083-3.136c1.296-0.77,2.703-1.155,4.222-1.155
		c0.938,0,1.937,0.14,2.997,0.419l1.117,0.312c0.215,0.043,0.397,0.064,0.548,0.064c0.279,0,0.465-0.041,0.559-0.123
		c0.093-0.082,0.164-0.231,0.215-0.446h0.172L209.691,143.704z"/>
	<path fill="#353535" d="M223.581,147.399v-5.296c0-0.516-0.14-0.938-0.419-1.268c-0.279-0.329-0.713-0.494-1.3-0.494v-0.183h5.038
		v0.183c-0.588,0-1.018,0.163-1.289,0.489c-0.272,0.326-0.408,0.75-0.408,1.272v11.967c0,1.16,0.565,1.74,1.697,1.74v0.172h-5.038
		v-0.172c0.537,0,0.957-0.145,1.262-0.436c0.305-0.289,0.457-0.718,0.457-1.283v-6.209h-9.066v6.188
		c0,0.552,0.155,0.979,0.467,1.283c0.312,0.305,0.729,0.457,1.252,0.457v0.172h-5.038v-0.172c0.544,0,0.961-0.152,1.251-0.457
		c0.29-0.304,0.436-0.731,0.436-1.283v-11.967c0-1.174-0.562-1.762-1.687-1.762v-0.183h5.038v0.183c-0.595,0-1.03,0.163-1.306,0.489
		s-0.413,0.75-0.413,1.272v5.296H223.581z"/>
	<path fill="#353535" d="M235.623,139.966l4.737,13.557c0.25,0.702,0.486,1.21,0.709,1.525c0.222,0.315,0.435,0.514,0.639,0.597
		c0.204,0.082,0.464,0.138,0.779,0.166v0.172h-5.167v-0.172c0.529,0,0.938-0.05,1.225-0.15c0.286-0.101,0.43-0.372,0.43-0.816
		c0-0.243-0.068-0.569-0.204-0.978c-0.029-0.058-0.043-0.101-0.043-0.129l-1.407-4.2h-5.479l-1.257,3.889
		c-0.172,0.53-0.258,0.956-0.258,1.278c0,0.444,0.11,0.739,0.333,0.886c0.222,0.147,0.537,0.221,0.945,0.221v0.172h-3.717v-0.172
		c0.529-0.05,0.954-0.252,1.272-0.607c0.318-0.354,0.597-0.893,0.833-1.616l4.469-13.621H235.623z M232.024,148.968h5.038
		l-2.578-7.509h-0.043L232.024,148.968z"/>
	<path fill="#353535" d="M243.572,155.811h0.215c0.387,0,0.729-0.152,1.025-0.457c0.297-0.304,0.446-0.731,0.446-1.283v-11.945
		c0-0.658-0.167-1.117-0.5-1.375s-0.729-0.394-1.187-0.408v-0.183h5.06v0.183c-0.444,0.015-0.838,0.147-1.182,0.397
		c-0.344,0.251-0.516,0.713-0.516,1.386v11.548c0,0.688,0.172,1.164,0.516,1.429s0.905,0.397,1.687,0.397h1.364
		c0.594,0,1.068-0.071,1.423-0.215s0.636-0.361,0.844-0.655c0.207-0.294,0.419-0.709,0.634-1.246h0.183l-0.602,2.6h-9.41V155.811z"
		/>
	<path fill="#353535" d="M254.572,155.811h0.215c0.387,0,0.729-0.152,1.025-0.457c0.297-0.304,0.446-0.731,0.446-1.283v-11.945
		c0-0.658-0.167-1.117-0.5-1.375s-0.729-0.394-1.187-0.408v-0.183h5.06v0.183c-0.444,0.015-0.838,0.147-1.182,0.397
		c-0.344,0.251-0.516,0.713-0.516,1.386v11.548c0,0.688,0.172,1.164,0.516,1.429s0.905,0.397,1.687,0.397h1.364
		c0.594,0,1.068-0.071,1.423-0.215s0.636-0.361,0.844-0.655c0.207-0.294,0.419-0.709,0.634-1.246h0.183l-0.602,2.6h-9.41V155.811z"
		/>
	<path fill="#353535" d="M265.529,140.342v-0.183h9.432v2.492h-0.15c0-1.332-0.889-1.998-2.664-1.998h-3.298v7.187h2.9
		c0.572,0,1.085-0.093,1.536-0.279s0.709-0.612,0.773-1.278h0.161v3.588h-0.161c-0.064-0.408-0.187-0.722-0.365-0.94
		c-0.18-0.218-0.356-0.363-0.532-0.435s-0.331-0.107-0.467-0.107c-0.258-0.043-0.526-0.064-0.806-0.064h-3.04v5.618
		c0,0.423,0.08,0.788,0.241,1.096s0.535,0.462,1.123,0.462h2.353c0.565,0,1.031-0.082,1.396-0.247s0.653-0.394,0.864-0.688
		s0.389-0.648,0.532-1.063h0.15l-0.548,2.481h-9.432v-0.172h0.215c0.336,0,0.666-0.136,0.988-0.408s0.483-0.716,0.483-1.332v-11.924
		c0-0.486-0.109-0.909-0.328-1.268c-0.219-0.357-0.6-0.537-1.144-0.537H265.529z"/>
	<path fill="#353535" d="M293.147,140.159v0.183c-0.401,0.051-0.719,0.128-0.951,0.231s-0.413,0.308-0.542,0.612
		s-0.193,0.743-0.193,1.315v13.879h-0.107l-12.149-13.557v9.732c0,0.81,0.032,1.411,0.097,1.805s0.157,0.677,0.279,0.849
		c0.265,0.372,0.727,0.573,1.386,0.602v0.172h-3.964v-0.172c0.443-0.021,0.789-0.116,1.036-0.285
		c0.247-0.168,0.423-0.476,0.526-0.924c0.104-0.447,0.156-1.122,0.156-2.024v-10.323l-0.526-0.591
		c-0.466-0.529-0.838-0.864-1.117-1.004s-0.627-0.245-1.042-0.317v-0.183h2.976l11.967,13.406V143.35
		c0-0.766-0.031-1.339-0.092-1.719c-0.061-0.379-0.222-0.684-0.483-0.913c-0.262-0.229-0.671-0.354-1.229-0.376v-0.183H293.147z"/>
	<path fill="#353535" d="M309.121,143.446h-0.172c-0.229-1.031-0.838-1.831-1.826-2.4s-2.116-0.854-3.384-0.854
		c-0.659,0-1.366,0.103-2.122,0.307s-1.491,0.574-2.207,1.111c-0.717,0.537-1.311,1.315-1.783,2.336
		c-0.473,1.021-0.709,2.305-0.709,3.852c0,2.464,0.574,4.433,1.724,5.908s2.995,2.213,5.538,2.213c1.002,0,1.74-0.068,2.213-0.204
		s0.774-0.322,0.907-0.559s0.199-0.555,0.199-0.956v-2.9c0-0.688-0.149-1.143-0.446-1.364s-0.743-0.369-1.337-0.44v-0.183h5.146
		v0.183c-0.473,0.05-0.838,0.152-1.096,0.307c-0.258,0.153-0.43,0.353-0.516,0.596s-0.129,0.565-0.129,0.967v4.404
		c-1.576,0.423-3.201,0.634-4.877,0.634c-0.867,0-1.723-0.071-2.567-0.215c-0.846-0.144-1.727-0.462-2.643-0.956
		c-0.917-0.494-1.727-1.225-2.428-2.191c-1.053-1.454-1.579-3.098-1.579-4.931c0-1.067,0.198-2.105,0.596-3.115
		s0.971-1.914,1.719-2.712c0.748-0.799,1.663-1.429,2.745-1.891c1.081-0.462,2.28-0.693,3.599-0.693
		c0.508,0,1.006,0.034,1.493,0.103c0.486,0.068,1.214,0.206,2.181,0.413c0.379,0.086,0.651,0.129,0.816,0.129
		c0.351,0,0.608-0.175,0.773-0.526h0.172V143.446z"/>
	<path fill="#353535" d="M311.807,140.342v-0.183h9.432v2.492h-0.15c0-1.332-0.889-1.998-2.664-1.998h-3.298v7.187h2.9
		c0.572,0,1.085-0.093,1.536-0.279s0.709-0.612,0.773-1.278h0.161v3.588h-0.161c-0.064-0.408-0.187-0.722-0.365-0.94
		c-0.18-0.218-0.356-0.363-0.532-0.435s-0.331-0.107-0.467-0.107c-0.258-0.043-0.526-0.064-0.806-0.064h-3.04v5.618
		c0,0.423,0.08,0.788,0.241,1.096s0.535,0.462,1.123,0.462h2.353c0.565,0,1.031-0.082,1.396-0.247s0.653-0.394,0.864-0.688
		s0.389-0.648,0.532-1.063h0.15l-0.548,2.481h-9.432v-0.172h0.215c0.336,0,0.666-0.136,0.988-0.408s0.483-0.716,0.483-1.332v-11.924
		c0-0.486-0.109-0.909-0.328-1.268c-0.219-0.357-0.6-0.537-1.144-0.537H311.807z"/>
</g>
</svg>
